# xmcd
#
# Track frame offsets:
# 150
# 15882
# 30465
# 42635
# 58562
# 71087
# 85970
# 101050
# 118362
# 127357
# 141525
# 157757
# 173095
# 187955
#
# Disc length: 2696 seconds
#
#
# Revision: 6
# Processed by: cddbd v1.5.1PL0 Copyright (c) Steve Scherf et al.
# Submitted via: FreeRIP 2.931 
#
DISCID=c50a860e
DTITLE=Coyote Dax - Me vale
DYEAR=2001
DGENRE=Country
TTITLE0=No rompas mi corazón
TTITLE1=Arriba y abajo
TTITLE2=Chatahoochie
TTITLE3=Johny Boy
TTITLE4=Corazón vanidoso
TTITLE5=Me vale (cotton eyed Joe)
TTITLE6=Jambalaya (on the bayou)
TTITLE7=Carretera 54
TTITLE8=Ranchero
TTITLE9=Se murió de amor
TTITLE10=Rock on
TTITLE11=Payaso de rodeo
TTITLE12=Chiquilla escandalosa
TTITLE13='Hey baby, que pasó'
EXTD=
EXTT0=
EXTT1=
EXTT2=
EXTT3=
EXTT4=
EXTT5=
EXTT6=
EXTT7=
EXTT8=
EXTT9=
EXTT10=
EXTT11=
EXTT12=
EXTT13=
PLAYORDER=
